<svg width="580" height="230" style="overflow: hidden;" aria-label="Ein Diagramm" aria-hidden="true"><defs id="defs"><clipPath id="_ABSTRACT_RENDERER_ID_1"><rect x="0" y="40" width="580" height="160"/></clipPath></defs><g><rect x="0" y="17" width="84" height="12" stroke="none" stroke-width="0" fill-opacity="0" fill="#ffffff"/><g><rect x="0" y="17" width="12" height="12" stroke="none" stroke-width="0" fill-opacity="0" fill="#ffffff"/><g><text text-anchor="start" x="17" y="27.2" font-family="Arial" font-size="12" stroke="none" stroke-width="0" fill="#222222">docker</text></g><rect x="0" y="17" width="12" height="12" stroke="none" stroke-width="0" fill="#3f85f2"/></g><g><rect x="36" y="17" width="12" height="12" stroke="none" stroke-width="0" fill-opacity="0" fill="#ffffff"/><g><text text-anchor="start" x="53" y="27.2" font-family="Arial" font-size="12" stroke="none" stroke-width="0" fill="#222222">vagrant</text></g><rect x="36" y="17" width="12" height="12" stroke="none" stroke-width="0" fill="#db4437"/></g><g><rect x="72" y="17" width="12" height="12" stroke="none" stroke-width="0" fill-opacity="0" fill="#ffffff"/><g><text text-anchor="start" x="89" y="27.2" font-family="Arial" font-size="12" stroke="none" stroke-width="0" fill="#222222">deb</text></g><rect x="72" y="17" width="12" height="12" stroke="none" stroke-width="0" fill="#f4b400"/></g></g><g><rect x="0" y="40" width="580" height="160" stroke="none" stroke-width="0" fill-opacity="0" fill="#ffffff"/><g clip-path="url(http://www.google.de/trends/fetchComponent?hl=de&amp;q=docker,+vagrant,+deb&amp;cmpt=q&amp;tz&amp;tz&amp;content=1&amp;cid=TIMESERIES_GRAPH_0&amp;export=5&amp;w=600&amp;h=330#_ABSTRACT_RENDERER_ID_1)"><g><rect x="51" y="40" width="1" height="160" stroke="none" stroke-width="0" fill="#ffffff"/><rect x="156" y="40" width="1" height="160" stroke="none" stroke-width="0" fill="#ffffff"/><rect x="261" y="40" width="1" height="160" stroke="none" stroke-width="0" fill="#ffffff"/><rect x="366" y="40" width="1" height="160" stroke="none" stroke-width="0" fill="#ffffff"/><rect x="472" y="40" width="1" height="160" stroke="none" stroke-width="0" fill="#ffffff"/><rect x="577" y="40" width="1" height="160" stroke="none" stroke-width="0" fill="#ffffff"/><rect x="0" y="199" width="580" height="1" stroke="none" stroke-width="0" fill="#efefef"/><rect x="0" y="167" width="580" height="1" stroke="none" stroke-width="0" fill="#efefef"/><rect x="0" y="135" width="580" height="1" stroke="none" stroke-width="0" fill="#efefef"/><rect x="0" y="104" width="580" height="1" stroke="none" stroke-width="0" fill="#efefef"/><rect x="0" y="72" width="580" height="1" stroke="none" stroke-width="0" fill="#efefef"/><rect x="0" y="40" width="580" height="1" stroke="none" stroke-width="0" fill="#efefef"/></g><g><rect x="0" y="40" width="1" height="160" stroke="none" stroke-width="0" fill="#ffffff"/><rect x="0" y="199" width="580" height="1" stroke="none" stroke-width="0" fill="#999999"/></g><g><path d="M0.5,193.14L4.823046291687407,193.14L9.146092583374815,191.55L13.541189646590345,189.96L17.930282478845196,191.55L22.325379542060727,193.14L26.720476605276257,193.14L31.187624440019913,193.14L35.58272150323544,191.55L39.97781856645097,193.14L44.37891986062718,191.55L48.77401692384271,191.55L53.241164758586365,191.55L57.49216027874565,194.73L61.74315579890493,193.14L66.13825286212047,191.55L70.52734569437531,193.14L74.92244275759084,193.14L79.31753982080637,191.55L83.78468765555003,191.55L88.17978471876556,193.14L92.57488178198109,193.14L96.97598307615729,191.55L101.37108013937282,191.55L105.83822797411648,191.55L110.08922349427577,193.14L114.34021901443505,193.14L118.73531607765058,191.55L123.12440890990543,191.55L127.51950597312096,193.14L131.9146030363365,194.73L136.38175087108016,193.14L140.7768479342957,191.55L145.17194499751122,191.55L149.5730462916874,191.55L153.96814335490294,189.96L158.4352911896466,193.14L162.68628670980587,191.55L166.94328646092583,189.96L171.32637506222002,191.55L175.72147212543555,191.55L180.11656918865108,191.55L184.51166625186661,193.14L188.97881408661027,193.14L193.3739111498258,193.14L197.76900821304133,193.14L202.16410527625686,191.55L206.56520657043308,191.55L211.0323544051767,193.14L215.35540069686414,193.14L219.6844512195122,193.14L224.0675398208064,191.55L228.46263688402192,191.55L232.85773394723745,193.14L237.25283101045298,193.14L241.71997884519664,193.14L246.11507590841217,193.14L250.5101729716277,193.14L254.90527003484323,193.14L259.30637132901944,193.14L263.77351916376307,193.14L268.02451468392235,193.14L272.2815144350423,194.73L276.66460303633653,194.73L281.05970009955206,194.73L285.4547971627676,194.73L289.8498942259831,194.73L294.31704206072675,193.14L298.7121391239423,194.73L303.1072361871578,194.73L307.50233325037334,191.55L311.90343454454955,193.14L316.3705823792932,194.73L320.62157789945246,191.55L324.8785776505724,194.73L329.26166625186664,193.14L333.6567633150822,194.73L338.0518603782977,193.14L342.44695744151323,193.14L346.91410527625686,194.73L351.3092023394724,194.73L355.7042994026879,193.14L360.09939646590345,193.14L364.50049776007967,193.14L368.9676455948233,193.14L373.2186411149826,193.14L377.47564086610254,194.73L381.85872946739676,194.73L386.2538265306123,194.73L390.6489235938278,194.73L395.04402065704335,194.73L399.511168491787,194.73L403.9062655550025,193.14L408.30136261821804,194.73L412.69645968143357,194.73L417.0975609756098,194.73L421.5647088103534,194.73L425.88775510204084,194.73L430.2168056246889,194.73L434.5998942259831,194.73L438.99499128919865,194.73L443.3900883524142,194.73L447.7851854156297,194.73L452.25233325037334,194.73L456.64743031358887,193.14L461.0425273768044,194.73L465.43762444001993,194.73L469.83872573419615,194.73L474.3058735689398,194.73L478.5568690890991,196.32L482.813868840219,194.73L487.19695744151323,194.73L491.59205450472876,194.73L495.9871515679443,193.14L500.3822486311598,193.14L504.84939646590345,191.55L509.244493529119,188.37L513.6395905923346,185.19L518.0346876555501,182.01L522.4357889497263,183.6L526.90293678447,185.19L531.1539323046292,183.6L535.4109320557492,183.6L539.7940206570433,182.01L544.1891177202589,180.42L548.5842147834744,172.47L552.9793118466899,172.47L557.4464596814336,169.29L561.8415567446491,166.11L566.2366538078646,162.93L570.6317508710802,158.16L575.0328521652564,158.16L579.5,159.75" stroke="#3f85f2" stroke-width="2" fill-opacity="1" fill="none"/><path d="M0.5,174.06L4.823046291687407,174.06L9.146092583374815,178.82999999999998L13.541189646590345,182.01L17.930282478845196,183.6L22.325379542060727,178.82999999999998L26.720476605276257,178.82999999999998L31.187624440019913,182.01L35.58272150323544,180.42L39.97781856645097,178.82999999999998L44.37891986062718,183.6L48.77401692384271,182.01L53.241164758586365,185.19L57.49216027874565,183.6L61.74315579890493,183.6L66.13825286212047,183.6L70.52734569437531,183.6L74.92244275759084,185.19L79.31753982080637,185.19L83.78468765555003,183.6L88.17978471876556,186.78L92.57488178198109,185.19L96.97598307615729,188.37L101.37108013937282,188.37L105.83822797411648,186.78L110.08922349427577,188.37L114.34021901443505,186.78L118.73531607765058,186.78L123.12440890990543,188.37L127.51950597312096,186.78L131.9146030363365,188.37L136.38175087108016,188.37L140.7768479342957,188.37L145.17194499751122,188.37L149.5730462916874,189.96L153.96814335490294,188.37L158.4352911896466,188.37L162.68628670980587,189.96L166.94328646092583,189.96L171.32637506222002,189.96L175.72147212543555,189.96L180.11656918865108,189.96L184.51166625186661,189.96L188.97881408661027,188.37L193.3739111498258,189.96L197.76900821304133,189.96L202.16410527625686,189.96L206.56520657043308,191.55L211.0323544051767,191.55L215.35540069686414,191.55L219.6844512195122,191.55L224.0675398208064,191.55L228.46263688402192,189.96L232.85773394723745,191.55L237.25283101045298,189.96L241.71997884519664,191.55L246.11507590841217,191.55L250.5101729716277,191.55L254.90527003484323,191.55L259.30637132901944,191.55L263.77351916376307,193.14L268.02451468392235,189.96L272.2815144350423,191.55L276.66460303633653,189.96L281.05970009955206,191.55L285.4547971627676,191.55L289.8498942259831,189.96L294.31704206072675,189.96L298.7121391239423,183.6L303.1072361871578,189.96L307.50233325037334,189.96L311.90343454454955,186.78L316.3705823792932,186.78L320.62157789945246,188.37L324.8785776505724,188.37L329.26166625186664,188.37L333.6567633150822,188.37L338.0518603782977,189.96L342.44695744151323,188.37L346.91410527625686,188.37L351.3092023394724,189.96L355.7042994026879,188.37L360.09939646590345,186.78L364.50049776007967,188.37L368.9676455948233,188.37L373.2186411149826,188.37L377.47564086610254,186.78L381.85872946739676,186.78L386.2538265306123,188.37L390.6489235938278,188.37L395.04402065704335,186.78L399.511168491787,188.37L403.9062655550025,188.37L408.30136261821804,186.78L412.69645968143357,186.78L417.0975609756098,186.78L421.5647088103534,188.37L425.88775510204084,188.37L430.2168056246889,188.37L434.5998942259831,188.37L438.99499128919865,188.37L443.3900883524142,189.96L447.7851854156297,188.37L452.25233325037334,188.37L456.64743031358887,188.37L461.0425273768044,188.37L465.43762444001993,188.37L469.83872573419615,186.78L474.3058735689398,186.78L478.5568690890991,186.78L482.813868840219,186.78L487.19695744151323,185.19L491.59205450472876,185.19L495.9871515679443,182.01L500.3822486311598,183.6L504.84939646590345,182.01L509.244493529119,182.01L513.6395905923346,180.42L518.0346876555501,180.42L522.4357889497263,180.42L526.90293678447,178.82999999999998L531.1539323046292,178.82999999999998L535.4109320557492,177.24L539.7940206570433,177.24L544.1891177202589,175.65L548.5842147834744,177.24L552.9793118466899,177.24L557.4464596814336,177.24L561.8415567446491,175.65L566.2366538078646,174.06L570.6317508710802,175.65L575.0328521652564,175.65L579.5,177.24" stroke="#db4437" stroke-width="2" fill-opacity="1" fill="none"/><path d="M0.5,56.400000000000006L4.823046291687407,48.44999999999999L9.146092583374815,61.16999999999999L13.541189646590345,59.579999999999984L17.930282478845196,72.3L22.325379542060727,75.47999999999999L26.720476605276257,77.07L31.187624440019913,80.25L35.58272150323544,61.16999999999999L39.97781856645097,72.3L44.37891986062718,72.3L48.77401692384271,70.70999999999998L53.241164758586365,51.629999999999995L57.49216027874565,42.09L61.74315579890493,42.09L66.13825286212047,50.03999999999999L70.52734569437531,50.03999999999999L74.92244275759084,65.94L79.31753982080637,67.53L83.78468765555003,61.16999999999999L88.17978471876556,40.5L92.57488178198109,42.09L96.97598307615729,61.16999999999999L101.37108013937282,57.98999999999998L105.83822797411648,45.26999999999998L110.08922349427577,42.09L114.34021901443505,40.5L118.73531607765058,43.67999999999998L123.12440890990543,62.75999999999999L127.51950597312096,73.89L131.9146030363365,75.47999999999999L136.38175087108016,69.12L140.7768479342957,51.629999999999995L145.17194499751122,62.75999999999999L149.5730462916874,62.75999999999999L153.96814335490294,67.53L158.4352911896466,64.35L162.68628670980587,54.81L166.94328646092583,54.81L171.32637506222002,50.03999999999999L175.72147212543555,69.12L180.11656918865108,73.89L184.51166625186661,81.83999999999999L188.97881408661027,73.89L193.3739111498258,59.579999999999984L197.76900821304133,62.75999999999999L202.16410527625686,67.53L206.56520657043308,70.70999999999998L211.0323544051767,67.53L215.35540069686414,67.53L219.6844512195122,67.53L224.0675398208064,64.35L228.46263688402192,73.89L232.85773394723745,92.97L237.25283101045298,88.19999999999999L241.71997884519664,86.61L246.11507590841217,72.3L250.5101729716277,77.07L254.90527003484323,77.07L259.30637132901944,80.25L263.77351916376307,75.47999999999999L268.02451468392235,65.94L272.2815144350423,70.70999999999998L276.66460303633653,65.94L281.05970009955206,80.25L285.4547971627676,92.97L289.8498942259831,89.78999999999999L294.31704206072675,85.02L298.7121391239423,81.83999999999999L303.1072361871578,83.42999999999999L307.50233325037334,86.61L311.90343454454955,92.97L316.3705823792932,92.97L320.62157789945246,81.83999999999999L324.8785776505724,91.38L329.26166625186664,91.38L333.6567633150822,81.83999999999999L338.0518603782977,96.14999999999999L342.44695744151323,99.33L346.91410527625686,85.02L351.3092023394724,86.61L355.7042994026879,81.83999999999999L360.09939646590345,94.55999999999999L364.50049776007967,92.97L368.9676455948233,88.19999999999999L373.2186411149826,77.07L377.47564086610254,78.66L381.85872946739676,75.47999999999999L386.2538265306123,86.61L390.6489235938278,102.50999999999999L395.04402065704335,96.14999999999999L399.511168491787,102.50999999999999L403.9062655550025,94.55999999999999L408.30136261821804,96.14999999999999L412.69645968143357,102.50999999999999L417.0975609756098,94.55999999999999L421.5647088103534,89.78999999999999L425.88775510204084,85.02L430.2168056246889,92.97L434.5998942259831,92.97L438.99499128919865,94.55999999999999L443.3900883524142,105.69L447.7851854156297,108.86999999999999L452.25233325037334,105.69L456.64743031358887,96.14999999999999L461.0425273768044,105.69L465.43762444001993,108.86999999999999L469.83872573419615,115.22999999999999L474.3058735689398,108.86999999999999L478.5568690890991,91.38L482.813868840219,100.92L487.19695744151323,105.69L491.59205450472876,113.64L495.9871515679443,120L500.3822486311598,118.41L504.84939646590345,118.41L509.244493529119,108.86999999999999L513.6395905923346,118.41L518.0346876555501,120L522.4357889497263,118.41L526.90293678447,104.1L531.1539323046292,110.46L535.4109320557492,108.86999999999999L539.7940206570433,108.86999999999999L544.1891177202589,113.64L548.5842147834744,120L552.9793118466899,121.58999999999999L557.4464596814336,120L561.8415567446491,116.82L566.2366538078646,118.41L570.6317508710802,121.58999999999999L575.0328521652564,126.36L579.5,124.77" stroke="#f4b400" stroke-width="2" fill-opacity="1" fill="none"/></g></g><g/><g><g><text text-anchor="middle" x="51.00759084121454" y="213.65" font-family="Arial" font-size="9" stroke="none" stroke-width="0" fill="#999999">2005</text></g><g><text text-anchor="middle" x="156.20171727227478" y="213.65" font-family="Arial" font-size="9" stroke="none" stroke-width="0" fill="#999999">2007</text></g><g><text text-anchor="middle" x="261.53994524639126" y="213.65" font-family="Arial" font-size="9" stroke="none" stroke-width="0" fill="#999999">2009</text></g><g><text text-anchor="middle" x="366.7340716774515" y="213.65" font-family="Arial" font-size="9" stroke="none" stroke-width="0" fill="#999999">2011</text></g><g><text text-anchor="middle" x="472.07229965156796" y="213.65" font-family="Arial" font-size="9" stroke="none" stroke-width="0" fill="#999999">2013</text></g><g><text text-anchor="middle" x="577.2664260826282" y="213.65" font-family="Arial" font-size="9" stroke="none" stroke-width="0" fill="#999999">2015</text></g></g></g><g/></svg>
